<svg id="twitter-brands" xmlns="http://www.w3.org/2000/svg" width="26" height="21" viewBox="0 0 26 21">
  <path id="Path" d="M23.327,5.234c.017.23.017.459.017.689A15.013,15.013,0,0,1,8.183,21,15.119,15.119,0,0,1,0,18.621a11.084,11.084,0,0,0,1.287.066A10.71,10.71,0,0,0,7.9,16.423,5.334,5.334,0,0,1,2.92,12.748a6.757,6.757,0,0,0,1.006.082,5.665,5.665,0,0,0,1.4-.18,5.307,5.307,0,0,1-4.273-5.2V7.383a5.389,5.389,0,0,0,2.409.673A5.288,5.288,0,0,1,1.815.968,15.175,15.175,0,0,0,12.8,6.513,5.95,5.95,0,0,1,12.67,5.3a5.34,5.34,0,0,1,9.222-3.626A10.527,10.527,0,0,0,25.274.394a5.29,5.29,0,0,1-2.343,2.92A10.729,10.729,0,0,0,26,2.494,11.42,11.42,0,0,1,23.327,5.234Z" fill="#fff"/>
</svg>
