<?xml version="1.0" encoding="UTF-8" standalone="no"?>
<svg
   xmlns:dc="http://purl.org/dc/elements/1.1/"
   xmlns:cc="http://creativecommons.org/ns#"
   xmlns:rdf="http://www.w3.org/1999/02/22-rdf-syntax-ns#"
   xmlns:svg="http://www.w3.org/2000/svg"
   xmlns="http://www.w3.org/2000/svg"
   xmlns:sodipodi="http://sodipodi.sourceforge.net/DTD/sodipodi-0.dtd"
   xmlns:inkscape="http://www.inkscape.org/namespaces/inkscape"
   data-name="Layer 1"
   viewBox="0 0 24 24"
   x="0px"
   y="0px"
   version="1.1"
   id="svg14"
   sodipodi:docname="noun_instagram_3350460.svg"
   width="24"
   height="24"
   inkscape:version="0.92.3 (2405546, 2018-03-11)">
  <metadata
     id="metadata20">
    <rdf:RDF>
      <cc:Work
         rdf:about="">
        <dc:format>image/svg+xml</dc:format>
        <dc:type
           rdf:resource="http://purl.org/dc/dcmitype/StillImage" />
        <dc:title>Artboard 98</dc:title>
      </cc:Work>
    </rdf:RDF>
  </metadata>
  <defs
     id="defs18" />
  <sodipodi:namedview
     pagecolor="#ffffff"
     bordercolor="#666666"
     borderopacity="1"
     objecttolerance="10"
     gridtolerance="10"
     guidetolerance="10"
     inkscape:pageopacity="0"
     inkscape:pageshadow="2"
     inkscape:window-width="2387"
     inkscape:window-height="1446"
     id="namedview16"
     showgrid="false"
     inkscape:zoom="22.250293"
     inkscape:cx="15.84991"
     inkscape:cy="10.227827"
     inkscape:window-x="0"
     inkscape:window-y="0"
     inkscape:window-maximized="0"
     inkscape:current-layer="svg14" />
  <title
     id="title2">Artboard 98</title>
  <path
     d="M 20,0 H 4 A 4,4 0 0 0 0,4 v 16 a 4,4 0 0 0 4,4 h 16 a 4,4 0 0 0 4,-4 V 4 A 4,4 0 0 0 20,0 Z m 2,20 a 2,2 0 0 1 -2,2 H 4 A 2,2 0 0 1 2,20 V 4 A 2,2 0 0 1 4,2 h 16 a 2,2 0 0 1 2,2 z"
     id="path4"
     style="fill:#ffffff;fill-opacity:1"
     inkscape:connector-curvature="0" />
  <path
     d="m 12,6 a 6,6 0 1 0 6,6 6,6 0 0 0 -6,-6 z m 0,10 a 4,4 0 1 1 4,-4 4,4 0 0 1 -4,4 z"
     id="path6"
     style="fill:#ffffff;fill-opacity:1"
     inkscape:connector-curvature="0" />
  <circle
     cx="18.5"
     cy="5.5"
     r="1.5"
     id="circle8"
     style="fill:#ffffff;fill-opacity:1" />
</svg>
