<?xml version="1.0" encoding="UTF-8" standalone="no"?>
<svg
   xmlns:dc="http://purl.org/dc/elements/1.1/"
   xmlns:cc="http://creativecommons.org/ns#"
   xmlns:rdf="http://www.w3.org/1999/02/22-rdf-syntax-ns#"
   xmlns:svg="http://www.w3.org/2000/svg"
   xmlns="http://www.w3.org/2000/svg"
   xmlns:sodipodi="http://sodipodi.sourceforge.net/DTD/sodipodi-0.dtd"
   xmlns:inkscape="http://www.inkscape.org/namespaces/inkscape"
   width="136"
   height="23.839"
   viewBox="0 0 136 23.839"
   version="1.1"
   id="svg29"
   sodipodi:docname="opensalud_white.svg"
   inkscape:version="0.92.3 (2405546, 2018-03-11)">
  <metadata
     id="metadata33">
    <rdf:RDF>
      <cc:Work
         rdf:about="">
        <dc:format>image/svg+xml</dc:format>
        <dc:type
           rdf:resource="http://purl.org/dc/dcmitype/StillImage" />
        <dc:title></dc:title>
      </cc:Work>
    </rdf:RDF>
  </metadata>
  <sodipodi:namedview
     pagecolor="#ffffff"
     bordercolor="#666666"
     borderopacity="1"
     objecttolerance="10"
     gridtolerance="10"
     guidetolerance="10"
     inkscape:pageopacity="0"
     inkscape:pageshadow="2"
     inkscape:window-width="2541"
     inkscape:window-height="1443"
     id="namedview31"
     showgrid="false"
     inkscape:zoom="9.6915223"
     inkscape:cx="91.826926"
     inkscape:cy="3.6158228"
     inkscape:window-x="0"
     inkscape:window-y="0"
     inkscape:window-maximized="0"
     inkscape:current-layer="Group_20" />
  <defs
     id="defs8">
    <clipPath
       id="clip-path">
      <path
         id="Clip_2"
         data-name="Clip 2"
         d="M0,0H13.4V13.747H0Z"
         transform="translate(0 0.326)"
         fill="none" />
    </clipPath>
    <clipPath
       id="clip-path-2">
      <path
         id="Clip_5"
         data-name="Clip 5"
         d="M0,0H13.456V18.674H0Z"
         transform="translate(0.628 0.326)"
         fill="none" />
    </clipPath>
    <clipPath
       id="clip-path-3">
      <path
         id="Clip_16"
         data-name="Clip 16"
         d="M0,23.839H136V0H0Z"
         transform="translate(0 0)"
         fill="none" />
    </clipPath>
  </defs>
  <g
     id="Group_20"
     data-name="Group 20"
     transform="translate(0 0)">
    <g
       id="Group_3"
       data-name="Group 3"
       transform="translate(0 4.839)">
      <path
         id="Clip_2-2"
         data-name="Clip 2"
         d="M0,0H13.4V13.747H0Z"
         transform="translate(0 0.326)"
         fill="none" />
      <g
         id="Group_3-2"
         data-name="Group 3"
         clip-path="url(#clip-path)">
        <path
           id="Fill_1"
           data-name="Fill 1"
           d="M6.7,13.747a7.351,7.351,0,0,1-3.483-.806A5.788,5.788,0,0,1,.848,10.622,7.215,7.215,0,0,1,0,7.046V6.675A7.161,7.161,0,0,1,.848,3.125,5.793,5.793,0,0,1,3.219.808,7.351,7.351,0,0,1,6.7,0a7.349,7.349,0,0,1,3.482.808,5.8,5.8,0,0,1,2.372,2.317A7.17,7.17,0,0,1,13.4,6.675v.371a7.224,7.224,0,0,1-.847,3.576,5.8,5.8,0,0,1-2.372,2.318A7.349,7.349,0,0,1,6.7,13.747ZM6.7,2.2a4.084,4.084,0,0,0-3.06,1.219A4.615,4.615,0,0,0,2.464,6.754v.239A4.612,4.612,0,0,0,3.642,10.33,4.084,4.084,0,0,0,6.7,11.549,4.071,4.071,0,0,0,9.774,10.33a4.643,4.643,0,0,0,1.165-3.338V6.754A4.647,4.647,0,0,0,9.774,3.417,4.071,4.071,0,0,0,6.7,2.2Z"
           transform="translate(0 0.326)"
           fill="#33c"
           style="fill:#ffffff;fill-opacity:1" />
      </g>
    </g>
    <g
       id="Group_6"
       data-name="Group 6"
       transform="translate(15 4.839)">
      <path
         id="Clip_5-2"
         data-name="Clip 5"
         d="M0,0H13.456V18.674H0Z"
         transform="translate(0.628 0.326)"
         fill="none" />
      <g
         id="Group_6-2"
         data-name="Group 6"
         clip-path="url(#clip-path-2)">
        <path
           id="Fill_4"
           data-name="Fill 4"
           d="M2.464,18.674H0V.37H2.411V2.331h.4A4.8,4.8,0,0,1,4.384.715,5.411,5.411,0,0,1,7.39,0a6.009,6.009,0,0,1,3.046.794,5.819,5.819,0,0,1,2.2,2.292,7.392,7.392,0,0,1,.821,3.589v.371a7.45,7.45,0,0,1-.821,3.615,5.813,5.813,0,0,1-2.2,2.29,6.01,6.01,0,0,1-3.046.795,6.439,6.439,0,0,1-2.2-.33,4.3,4.3,0,0,1-1.457-.849,4.6,4.6,0,0,1-.874-1.073h-.4v7.178ZM6.7,2.172a4.164,4.164,0,0,0-3.06,1.205A4.582,4.582,0,0,0,2.437,6.754v.238A4.586,4.586,0,0,0,3.642,10.37,4.161,4.161,0,0,0,6.7,11.575,4.147,4.147,0,0,0,9.774,10.37a4.616,4.616,0,0,0,1.193-3.378V6.754A4.588,4.588,0,0,0,9.762,3.377,4.167,4.167,0,0,0,6.7,2.172Z"
           transform="translate(0.628 0.326)"
           fill="#33c"
           style="fill:#ffffff;fill-opacity:1" />
      </g>
    </g>
    <path
       id="Fill_7"
       data-name="Fill 7"
       d="M6.6,13.747a7,7,0,0,1-3.47-.833,5.832,5.832,0,0,1-2.3-2.357A7.37,7.37,0,0,1,0,7.019V6.7A7.284,7.284,0,0,1,.822,3.179,5.91,5.91,0,0,1,3.1.834,6.684,6.684,0,0,1,6.463,0,6.5,6.5,0,0,1,9.747.808a5.728,5.728,0,0,1,2.2,2.278,7.2,7.2,0,0,1,.8,3.456V7.549H2.491a4.09,4.09,0,0,0,1.244,2.939,4.125,4.125,0,0,0,2.914,1.086,3.645,3.645,0,0,0,2.424-.715,4.652,4.652,0,0,0,1.257-1.7l2.092,1.061a8.5,8.5,0,0,1-1.1,1.589,5.677,5.677,0,0,1-1.84,1.377A6.607,6.607,0,0,1,6.6,13.747ZM6.463,2.172a3.9,3.9,0,0,0-2.675.914,4,4,0,0,0-1.271,2.5h7.734a3.51,3.51,0,0,0-1.138-2.5A3.874,3.874,0,0,0,6.463,2.172Z"
       transform="translate(30.673 5.165)"
       fill="#33c"
       style="fill:#ffffff;fill-opacity:1" />
    <path
       id="Fill_9"
       data-name="Fill 9"
       d="M0,13.244V.238H2.41v2.04h.4A4.171,4.171,0,0,1,4.186.716,4.909,4.909,0,0,1,7.1,0,5.311,5.311,0,0,1,9.722.649,4.628,4.628,0,0,1,11.549,2.5a5.944,5.944,0,0,1,.662,2.9v7.84H9.748V5.59a3.439,3.439,0,0,0-.9-2.636,3.478,3.478,0,0,0-2.463-.835A3.694,3.694,0,0,0,3.55,3.285a4.794,4.794,0,0,0-1.086,3.39v6.569Z"
       transform="translate(45.533 5.297)"
       fill="#33c"
       style="fill:#ffffff;fill-opacity:1" />
    <path
       id="Fill_11"
       data-name="Fill 11"
       d="M6.093,13.747A7.18,7.18,0,0,1,2,12.635,4.734,4.734,0,0,1,0,9.218l2.331-.557a3.755,3.755,0,0,0,.729,1.828,3.048,3.048,0,0,0,1.338.953,4.861,4.861,0,0,0,1.7.291A3.739,3.739,0,0,0,8.239,11.2a1.631,1.631,0,0,0,.767-1.4,1.343,1.343,0,0,0-.728-1.271,6.978,6.978,0,0,0-2.053-.636l-.98-.159a11.114,11.114,0,0,1-2.357-.689,4.283,4.283,0,0,1-1.7-1.232,3.063,3.063,0,0,1-.636-2A3.271,3.271,0,0,1,1.934.993,6.07,6.07,0,0,1,5.563,0a6.156,6.156,0,0,1,3.6.979,4.395,4.395,0,0,1,1.8,2.729l-2.305.636A2.582,2.582,0,0,0,7.6,2.542a3.693,3.693,0,0,0-2.04-.529,3.41,3.41,0,0,0-1.881.45,1.436,1.436,0,0,0-.689,1.271,1.346,1.346,0,0,0,.662,1.245,5.124,5.124,0,0,0,1.8.582l.953.186a14.052,14.052,0,0,1,2.543.663,4.3,4.3,0,0,1,1.8,1.191,3.063,3.063,0,0,1,.662,2.067,3.53,3.53,0,0,1-1.43,3.019,6.413,6.413,0,0,1-3.894,1.06"
       transform="translate(77.305 5.046)"
       fill="#33c"
       style="fill:#ffffff;fill-opacity:1" />
    <path
       id="Fill_13"
       data-name="Fill 13"
       d="M4.874,13.747A6.218,6.218,0,0,1,2.4,13.271a4.081,4.081,0,0,1-1.748-1.4A3.8,3.8,0,0,1,0,9.642,3.659,3.659,0,0,1,.649,7.43,3.893,3.893,0,0,1,2.41,6.106a6.863,6.863,0,0,1,2.516-.437h4.16v-.9a2.661,2.661,0,0,0-.743-1.96,3.038,3.038,0,0,0-2.225-.742,3.358,3.358,0,0,0-2.265.7,3.4,3.4,0,0,0-1.073,1.84l-2.3-.741A5.793,5.793,0,0,1,1.483,1.934,4.879,4.879,0,0,1,3.338.53,6.778,6.778,0,0,1,6.145,0a5.716,5.716,0,0,1,3.946,1.285,4.661,4.661,0,0,1,1.43,3.641v8.449H9.43V11.495h-.4a4.955,4.955,0,0,1-.675.968,3.6,3.6,0,0,1-1.3.913A5.449,5.449,0,0,1,4.874,13.747ZM5.086,7.6a3.211,3.211,0,0,0-1.881.5A1.674,1.674,0,0,0,2.49,9.562a1.856,1.856,0,0,0,.741,1.551,3.241,3.241,0,0,0,2.014.569,3.9,3.9,0,0,0,2.767-1.006A3.644,3.644,0,0,0,9.086,7.894V7.6Z"
       transform="translate(90.192 5.165)"
       fill="#33c"
       style="fill:#ffffff;fill-opacity:1" />
    <path
       id="Clip_16-2"
       data-name="Clip 16"
       d="M0,23.839H136V0H0Z"
       transform="translate(0 0)"
       fill="none" />
    <g
       id="Enmascarar_grupo_19"
       data-name="Enmascarar grupo 19"
       clip-path="url(#clip-path-3)">
      <path
         id="Fill_15"
         data-name="Fill 15"
         d="M0,18.541H2.464V0H0Z"
         transform="translate(103.687 0)"
         fill="#33c"
         style="fill:#ffffff;fill-opacity:1" />
      <path
         id="Fill_17"
         data-name="Fill 17"
         d="M5.139,13.244A5.3,5.3,0,0,1,2.517,12.6,4.715,4.715,0,0,1,.675,10.741,5.844,5.844,0,0,1,0,7.841V0H2.491V7.655a3.473,3.473,0,0,0,.886,2.623,3.4,3.4,0,0,0,2.45.847A3.692,3.692,0,0,0,8.661,9.96,4.841,4.841,0,0,0,9.747,6.543V0h2.491V13.006H9.8V10.967H9.4a4.181,4.181,0,0,1-1.378,1.562,4.869,4.869,0,0,1-2.887.715"
         transform="translate(108.081 5.536)"
         fill="#33c"
         style="fill:#ffffff;fill-opacity:1" />
      <path
         id="Fill_18"
         data-name="Fill 18"
         d="M6.067,18.912a6.033,6.033,0,0,1-3.034-.795A5.793,5.793,0,0,1,.821,15.826,7.461,7.461,0,0,1,0,12.211V11.84A7.41,7.41,0,0,1,.821,8.251a5.824,5.824,0,0,1,2.2-2.292,6.008,6.008,0,0,1,3.046-.794,6.416,6.416,0,0,1,2.2.331,4.447,4.447,0,0,1,1.457.833A4.191,4.191,0,0,1,10.6,7.416h.4V0h2.463V18.541h-2.41v-1.96h-.4A4.863,4.863,0,0,1,9.086,18.2,5.4,5.4,0,0,1,6.067,18.912ZM6.755,7.337A4.164,4.164,0,0,0,3.7,8.542,4.582,4.582,0,0,0,2.49,11.919v.238A4.586,4.586,0,0,0,3.7,15.535a4.164,4.164,0,0,0,3.06,1.205,4.167,4.167,0,0,0,3.06-1.205,4.589,4.589,0,0,0,1.2-3.378v-.238A4.612,4.612,0,0,0,9.827,8.542,4.147,4.147,0,0,0,6.755,7.337Z"
         transform="translate(122.544 0.001)"
         fill="#33c"
         style="fill:#ffffff;fill-opacity:1" />
      <path
         id="Fill_19"
         data-name="Fill 19"
         d="M6.423,11.017C3.166,9.83-2.6,4.981,1.315,1.03a3.594,3.594,0,0,1,5.108.07,3.594,3.594,0,0,1,5.108-.07c3.916,3.954-1.857,8.8-5.108,9.987"
         transform="translate(61.102 6.534)"
         fill="#33c"
         style="fill:#ffffff;fill-opacity:1" />
    </g>
  </g>
</svg>
