<svg id="linkedin-brands" xmlns="http://www.w3.org/2000/svg" width="27" height="27" viewBox="0 0 27 27">
  <path id="Path" d="M5.991,18H0V0H6V18Z" transform="translate(0 9)" fill="#fff"/>
  <path id="Path-2" data-name="Path" d="M3,6A3,3,0,1,1,6,3,3,3,0,0,1,3,6Z" fill="#fff"/>
  <path id="Path-3" data-name="Path" d="M17,18H11.552V9.456c0-2.037-.041-4.658-2.831-4.658-2.839,0-3.274,2.218-3.274,4.51V18H0V.435H5.226v2.4H5.3A5.737,5.737,0,0,1,10.461,0C15.974,0,17,3.639,17,8.372V18Z" transform="translate(10 9)" fill="#fff"/>
</svg>
