<svg xmlns="http://www.w3.org/2000/svg" viewBox="0 0 3000 531.13"><defs><style>.cls-1{fill:#3238c4;}</style></defs><g id="Primer_plano" data-name="Primer plano"><path class="cls-1" d="M150.07,418.49q-43.17,0-76.7-17.79a126.77,126.77,0,0,1-52.21-51Q2.47,316.4,2.49,270.91v-8.17q0-44.91,18.67-78.16a126.83,126.83,0,0,1,52.21-51q33.52-17.79,76.7-17.79t76.71,17.79a127,127,0,0,1,52.21,51q18.66,33.24,18.67,78.16v8.17q0,45.49-18.67,78.75a126.89,126.89,0,0,1-52.21,51Q193.23,418.49,150.07,418.49Zm0-48.41q42,0,67.66-26.84t25.67-73.5v-5.25q0-46.65-25.67-73.5t-67.66-26.83q-41.43,0-67.37,26.83t-26,73.5v5.25q0,46.68,26,73.5T150.07,370.08Z"/><path class="cls-1" d="M346.65,527V123.91h53.08v43.17h8.76q11.07-19.83,34.7-35.58t66.21-15.75q36.75,0,67.08,17.49T624.9,183.7q18.08,33,18.08,79v8.17q0,46.66-18.08,79.63T576.48,401q-30.33,17.5-67.08,17.5-28.59,0-48.41-7.29T428.9,392.54a100.93,100.93,0,0,1-19.25-23.63H400.9V527ZM494.23,370.66q41.41,0,67.67-26.54t26.25-74.38v-5.25q0-47.82-26.54-74.37t-67.38-26.54q-40.83,0-67.37,26.54t-26.54,74.37v5.25q0,47.85,26.54,74.38T494.23,370.66Z"/><path class="cls-1" d="M823.24,418.49q-43.75,0-76.42-18.37a127.79,127.79,0,0,1-50.75-51.92Q678,314.66,678,270.32v-7q0-44.32,18.08-77.59a129.55,129.55,0,0,1,50.16-51.62q32.09-18.37,74.09-18.37,41.4,0,72.33,17.79t48.42,50.16q17.5,32.38,17.5,76.12V282H732.82q1.75,40.83,27.42,64.74t64.16,23.92q35,0,53.38-15.75a102,102,0,0,0,27.71-37.34l46.08,23.34q-8.75,16.92-24.21,35t-40.54,30.33Q861.74,418.5,823.24,418.49ZM733.4,238.83H903.74q-2.34-35-25.09-55.13t-58.33-20.12q-36.18,0-58.92,20.12T733.4,238.83Z"/><path class="cls-1" d="M1005.23,410.32V123.91h53.08v44.92h8.75q8.75-18.66,30.34-34.42t64.16-15.75q32.07,0,57.75,14.29a101.89,101.89,0,0,1,40.25,40.84q14.58,26.55,14.58,63.87V410.32h-54.25V241.74q0-39.66-19.83-58t-54.25-18.37q-38.5,0-62.42,25.66t-23.92,74.67V410.32Z"/><path class="cls-1" d="M1839.09,415.87q-53.67,0-90.12-24.51t-44-75.24l51.33-12.26q4.08,25.69,16,40.25a67.46,67.46,0,0,0,29.46,21,107.31,107.31,0,0,0,37.33,6.42q30.33,0,47.25-11.67T1903.26,329q0-19.24-16-28T1842,287l-21.58-3.5a245.55,245.55,0,0,1-51.92-15.17q-23.34-9.9-37.33-27.12t-14-44q0-40.26,30.33-62.13t79.92-21.87q48.4,0,79.33,21.58t39.67,60.08l-50.75,14q-5.25-28-23.33-39.67t-44.92-11.66q-26.25,0-41.42,9.92t-15.17,28q0,18.69,14.59,27.42t39.66,12.83l21,4.09a310,310,0,0,1,56,14.58q25.08,9.33,39.67,26.25t14.59,45.5q0,43.19-31.5,66.5T1839.09,415.87Z"/><path class="cls-1" d="M2242.47,410.32h-46.08V368.91h-8.76q-4.66,9.34-14.87,21.29t-28.58,20.12q-18.37,8.18-48.13,8.17-30.33,0-54.54-10.5T2003,377.08q-14.29-20.41-14.29-49,0-29.16,14.29-48.7t38.79-29.16q24.5-9.65,55.42-9.63h91.58V220.74q0-26.82-16.33-43.16t-49-16.34q-32.1,0-49.88,15.46T2050,217.24l-50.75-16.33a127.44,127.44,0,0,1,22.16-42.58q15.18-19.26,40.84-30.92t61.83-11.66q55.42,0,86.92,28.29t31.5,80.21ZM2104.22,373q37.32,0,61-22.16t23.62-61.25v-6.42h-88.08q-25.68,0-41.42,11.08t-15.74,32.09q0,21.59,16.33,34.12T2104.22,373Z"/><path class="cls-1" d="M2285.92,410.32V2h54.25V410.32Z"/><path class="cls-1" d="M2495.85,415.57q-32.08,0-57.75-14.28a103.68,103.68,0,0,1-40.54-40.84q-14.88-26.54-14.88-63.88V123.91h54.84V292.5q0,39.08,19.54,57.74t54,18.67q38.49,0,62.41-25.67T2597.35,268V123.91h54.83V410.32h-53.66V365.41h-8.75q-8.76,18.68-30.34,34.41T2495.85,415.57Z"/><path class="cls-1" d="M2834.76,418.49A132.25,132.25,0,0,1,2768,401q-30.63-17.5-48.7-50.45t-18.09-79.63v-8.17q0-46.06,18.09-79t48.41-50.46q30.33-17.49,67.08-17.49,28.59,0,48.42,7.29t32.08,18.37a91.5,91.5,0,0,1,19.25,23.92h8.75V2h54.25V410.32h-53.08V367.16h-8.75q-11.08,19.83-34.41,35.58T2834.76,418.49Zm15.17-47.83q40.83,0,67.38-26.54t26.54-74.38v-5.25q0-47.82-26.25-74.37t-67.67-26.54q-40.84,0-67.37,26.54T2756,264.49v5.25q0,47.85,26.54,74.38T2849.93,370.66Z"/><path class="cls-1" d="M1489.53,388.51c-71.7-26.14-198.72-132.92-112.5-219.95,32.24-29.13,81.36-31.83,112.5,1.55,31.13-33.4,80.28-30.67,112.5-1.55C1688.29,255.65,1561.12,362.42,1489.53,388.51Z"/></g></svg>