<?xml version="1.0" encoding="UTF-8" standalone="no"?>
<svg
   xmlns:dc="http://purl.org/dc/elements/1.1/"
   xmlns:cc="http://creativecommons.org/ns#"
   xmlns:rdf="http://www.w3.org/1999/02/22-rdf-syntax-ns#"
   xmlns:svg="http://www.w3.org/2000/svg"
   xmlns="http://www.w3.org/2000/svg"
   xmlns:sodipodi="http://sodipodi.sourceforge.net/DTD/sodipodi-0.dtd"
   xmlns:inkscape="http://www.inkscape.org/namespaces/inkscape"
   width="97.997047"
   height="125"
   viewBox="0 0 97.997052 125"
   version="1.1"
   id="svg35"
   sodipodi:docname="price.svg"
   inkscape:version="0.92.3 (2405546, 2018-03-11)">
  <metadata
     id="metadata39">
    <rdf:RDF>
      <cc:Work
         rdf:about="">
        <dc:format>image/svg+xml</dc:format>
        <dc:type
           rdf:resource="http://purl.org/dc/dcmitype/StillImage" />
        <dc:title></dc:title>
      </cc:Work>
    </rdf:RDF>
  </metadata>
  <sodipodi:namedview
     pagecolor="#ffffff"
     bordercolor="#666666"
     borderopacity="1"
     objecttolerance="10"
     gridtolerance="10"
     guidetolerance="10"
     inkscape:pageopacity="0"
     inkscape:pageshadow="2"
     inkscape:window-width="2808"
     inkscape:window-height="1609"
     id="namedview37"
     showgrid="false"
     fit-margin-top="0"
     fit-margin-left="0"
     fit-margin-right="0"
     fit-margin-bottom="0"
     inkscape:zoom="1.2756826"
     inkscape:cx="52.214495"
     inkscape:cy="59.432714"
     inkscape:window-x="0"
     inkscape:window-y="0"
     inkscape:window-maximized="0"
     inkscape:current-layer="Group_5" />
  <defs
     id="defs24">
    <filter
       id="Fill_1"
       x="8"
       y="9"
       width="148.99899"
       height="175.99899"
       filterUnits="userSpaceOnUse">
      <feOffset
         dx="8"
         dy="6"
         input="SourceAlpha"
         id="feOffset2" />
      <feGaussianBlur
         stdDeviation="8.5"
         result="blur"
         id="feGaussianBlur4" />
      <feFlood
         flood-color="#aeaec0"
         id="feFlood6" />
      <feComposite
         operator="in"
         in2="blur"
         id="feComposite8"
         result="result1" />
      <feComposite
         in="SourceGraphic"
         in2="result1"
         id="feComposite10" />
    </filter>
    <filter
       id="Fill_1-2"
       x="0"
       y="0"
       width="142.99899"
       height="169.99899"
       filterUnits="userSpaceOnUse">
      <feOffset
         dx="-3"
         dy="-6"
         input="SourceAlpha"
         id="feOffset13" />
      <feGaussianBlur
         stdDeviation="7.5"
         result="blur-2"
         id="feGaussianBlur15" />
      <feFlood
         flood-color="#fff"
         id="feFlood17" />
      <feComposite
         operator="in"
         in2="blur-2"
         id="feComposite19"
         result="result1" />
      <feComposite
         in="SourceGraphic"
         in2="result1"
         id="feComposite21" />
    </filter>
  </defs>
  <g
     id="NEU_ICON_PRICE"
     transform="translate(-0.78500183,1.5677922)">
    <g
       id="Group_5"
       data-name="Group 5">
      <path
         id="Fill_1-5"
         data-name="Fill 1"
         d="m 53.495894,123.43221 v 0 c -0.731,0 -1.58,-0.022 -2.563,-0.047 h -0.005 l -0.581,-0.015 c -1.281,-0.032 -2.691,-0.062 -4.321,-0.062 -0.8,0 -1.616,0.007 -2.413,0.022 a 1.86,1.86 0 0 1 -1.857,-1.859 v -12.408 c -7.878,-1.222 -14.656,-4.376 -19.6,-9.120002 -2.88,2.645002 -4.872,4.829002 -6.327,6.423002 -2,2.193 -3.1,3.4 -4.3,3.4 -1.39,0 -2.9169996,-1.583 -6.2649996,-5.053 -1.12,-1.16 -2.388,-2.476 -3.934,-4.026 a 1.858,1.858 0 0 1 0,-2.629002 L 13.972894,85.406212 a 41.375,41.375 0 0 1 -0.852,-10.029 1.86,1.86 0 0 1 1.857,-1.858 h 10.874 l 9.232,-9.239 c -6.2,-2.072 -11.009,-5.066 -14.3,-8.9 a 22.409,22.409 0 0 1 -5.252,-15.873 24.078,24.078 0 0 1 7.504,-18.625 31.673,31.673 0 0 1 18.72,-8.268004 c 0.045,-2.9090001 -0.011,-5.2200002 -0.055,-7.0780002 -0.088,-3.627 -0.132,-5.44700001 0.726,-6.32500001 0.635,-0.65099999 1.775,-0.77899999 3.53,-0.77899999 0.72,0 1.559,0.023 2.53,0.05 l 0.582,0.016 c 1.276,0.034 2.681,0.065 4.315,0.065 0.857,0 1.724,-0.009 2.575,-0.027 a 1.86,1.86 0 0 1 1.857,1.85899999 V 13.003208 c 7.8,1.412 14.436,4.906 18.686,9.836004 a 82.85,82.85 0 0 0 7.419999,-7.538004 c 1.862,-2.105 2.887,-3.269 4.043002,-3.269 1.371,0 2.934,1.613 6.359,5.148 1.117,1.153 2.383,2.459 3.915,3.994004 a 1.861,1.861 0 0 1 0,2.628 l -15.164001,15.18 0.04,0.628 c 0.249,3.894 0.362999,5.671 -0.415,6.5 -0.534,0.569 -1.488,0.677 -3.062,0.677 -0.467,0 -0.981,-0.01 -1.576,-0.021 h -0.005 -0.241 c -0.648,-0.012 -1.41,-0.025 -2.251,-0.025 h -0.242 l -9.457,9.463 c 1.414,0.533 2.757,1.089 3.991,1.651 a 23.862,23.862 0 0 1 14.365999,15.17 26.446,26.446 0 0 1 1.012,11.52 27.161,27.161 0 0 1 -4.199999,11.269 25.741,25.741 0 0 1 -4.4,5.056998 31,31 0 0 1 -5.583,3.933 38.04,38.04 0 0 1 -13.239,4.328 c -0.056,3.034 0.006,5.414 0.055,7.327 0.091,3.537 0.137,5.312 -0.713,6.184 -0.646,0.659 -1.831,0.789 -3.659,0.789 z m -0.65,-53.999998 v 0 l -19.062,19.011 c 2.844,3.689 9.087,5.989 16.294,5.989 5.462,0 10.4,-1.359 13.21,-3.635 a 11.5,11.5 0 0 0 4.421,-7.934 9.628,9.628 0 0 0 -2.085,-7.512 c -2.875,-3.25 -8.09,-4.655 -12.691,-5.895 l -0.088,-0.024 z m -4.523,-42 v 0 c -4.7,0 -9.1,1.176 -11.767,3.144 a 10.232,10.232 0 0 0 -3.6,9.97 10.506,10.506 0 0 0 6.974,8.363 43.513,43.513 0 0 0 7.73,2.523 l 16.124,-16.506 c -2.544,-5.525 -9.654,-7.494 -15.459,-7.494 z"
         inkscape:connector-curvature="0"
         style="fill:#eeeeee" />
    </g>
  </g>
</svg>
